<svg xmlns="http://www.w3.org/2000/svg" version="1.1" xmlns:xlink="http://www.w3.org/1999/xlink" xmlns:svgjs="http://svgjs.com/svgjs" width="1440" height="250" preserveAspectRatio="none" viewBox="0 0 1440 250"><g mask="url(&quot;#SvgjsMask1009&quot;)" fill="none"><rect width="1440" height="250" x="0" y="0" fill="rgba(66, 59, 68, 1)"></rect><path d="M14 250L264 0L382.5 0L132.5 250z" fill="url(#SvgjsLinearGradient1010)"></path><path d="M281.6 250L531.6 0L744.6 0L494.6 250z" fill="url(#SvgjsLinearGradient1010)"></path><path d="M511.20000000000005 250L761.2 0L965.2 0L715.2 250z" fill="url(#SvgjsLinearGradient1010)"></path><path d="M713.8000000000001 250L963.8000000000001 0L1176.8000000000002 0L926.8000000000001 250z" fill="url(#SvgjsLinearGradient1010)"></path><path d="M1435 250L1185 0L1102.5 0L1352.5 250z" fill="url(#SvgjsLinearGradient1011)"></path><path d="M1162.4 250L912.4000000000001 0L603.4000000000001 0L853.4000000000001 250z" fill="url(#SvgjsLinearGradient1011)"></path><path d="M963.8 250L713.8 0L658.3 0L908.3 250z" fill="url(#SvgjsLinearGradient1011)"></path><path d="M697.1999999999999 250L447.19999999999993 0L181.69999999999993 0L431.69999999999993 250z" fill="url(#SvgjsLinearGradient1011)"></path><path d="M1237.9462784979078 250L1440 47.94627849790788L1440 250z" fill="url(#SvgjsLinearGradient1010)"></path><path d="M0 250L202.05372150209212 250L 0 47.94627849790788z" fill="url(#SvgjsLinearGradient1011)"></path></g><defs><mask id="SvgjsMask1009"><rect width="1440" height="250" fill="#ffffff"></rect></mask><linearGradient x1="0%" y1="100%" x2="100%" y2="0%" id="SvgjsLinearGradient1010"><stop stop-color="rgba(121, 95, 128, 1)" offset="0"></stop><stop stop-opacity="0" stop-color="rgba(121, 95, 128, 1)" offset="0.66"></stop></linearGradient><linearGradient x1="100%" y1="100%" x2="0%" y2="0%" id="SvgjsLinearGradient1011"><stop stop-color="rgba(121, 95, 128, 1)" offset="0"></stop><stop stop-opacity="0" stop-color="rgba(121, 95, 128, 1)" offset="0.66"></stop></linearGradient></defs></svg>